<?xml version="1.0" encoding="UTF-8" standalone="yes"?>
<svg xmlns="http://www.w3.org/2000/svg" xmlns:xlink="http://www.w3.org/1999/xlink" width="24px" height="24px" viewBox="0 0 24 24" version="1.1" fill="#000000">
  <g id="surface641257">
    <path style=" stroke:none;fill-rule:nonzero;fill:#000000;fill-opacity:1;" d="M 22.65625 10.730469 L 18.339844 3.296875 C 17.902344 2.507812 17.042969 2 16.148438 2 L 7.851562 2 C 6.957031 2 6.097656 2.507812 5.660156 3.292969 L 1.339844 10.726562 C 0.910156 11.511719 0.910156 12.480469 1.34375 13.269531 L 5.660156 20.703125 C 6.097656 21.492188 6.957031 22 7.851562 22 L 16.148438 22 C 17.042969 22 17.902344 21.492188 18.339844 20.707031 L 22.660156 13.273438 C 23.089844 12.488281 23.089844 11.515625 22.65625 10.730469 Z M 16.496094 17 L 14.777344 17 C 14.707031 17 14.636719 16.957031 14.601562 16.890625 L 12.023438 12.097656 C 12.007812 12.074219 12.003906 12.042969 11.996094 12.019531 C 11.992188 12.042969 11.988281 12.074219 11.972656 12.097656 L 9.382812 16.890625 C 9.355469 16.953125 9.289062 16.996094 9.21875 17 L 7.515625 17 C 7.378906 17 7.273438 16.816406 7.347656 16.6875 L 9.867188 12 L 7.347656 7.300781 C 7.285156 7.1875 7.359375 7.023438 7.480469 7 L 9.21875 7 C 9.285156 7 9.351562 7.042969 9.386719 7.105469 L 11.976562 11.898438 C 11.988281 11.921875 11.992188 11.945312 12 11.976562 C 12.003906 11.945312 12.007812 11.921875 12.023438 11.898438 L 14.605469 7.105469 C 14.640625 7.039062 14.707031 7 14.777344 7 L 16.496094 7 C 16.628906 7 16.730469 7.179688 16.667969 7.300781 L 14.144531 12 L 16.667969 16.6875 C 16.738281 16.816406 16.632812 17 16.496094 17 Z M 16.496094 17 "/>
  </g>
</svg>
